<?xml version="1.0" encoding="UTF-8"?>
<svg width="1869px" height="428px" viewBox="0 0 1869 428" version="1.1" xmlns="http://www.w3.org/2000/svg" xmlns:xlink="http://www.w3.org/1999/xlink">
    <!-- Generator: Sketch 52.4 (67378) - http://www.bohemiancoding.com/sketch -->
    <title>LOGO</title>
    <desc>Created with Sketch.</desc>
    <g id="Page-1" stroke="none" strokeWidth="1" fill="none" fillRule="evenodd">
        <path d="M432.870013,281 L432.870013,158.5 L483.970013,158.5 C508.470013,158.5 521.945013,171.975 521.945013,191.575 C521.945013,211.175 508.470013,224.825 483.970013,224.825 L441.620013,224.825 L441.620013,281 L432.870013,281 Z M441.620013,216.775 L483.095013,216.775 C502.345013,216.775 513.195013,207.675 513.195013,191.575 C513.195013,175.65 502.345013,166.55 483.095013,166.55 L441.620013,166.55 L441.620013,216.775 Z M639.755012,283.1 C611.055012,283.1 590.580012,264.2 590.580012,228.675 L590.580012,158.5 L599.330012,158.5 L599.330012,228.675 C599.330012,258.075 614.905012,274.875 639.755012,274.875 C664.605012,274.875 680.005012,258.25 680.005012,228.675 L680.005012,158.5 L688.755012,158.5 L688.755012,228.675 C688.755012,264.2 668.105012,283.1 639.755012,283.1 Z M766.49001,281 L766.49001,158.5 L820.91501,158.5 C844.89001,158.5 858.36501,171.625 858.36501,190.875 C858.36501,208.2 847.69001,220.8 828.09001,223.075 L868.16501,281 L858.01501,281 L818.11501,223.775 L775.24001,223.775 L775.24001,281 L766.49001,281 Z M775.24001,215.725 L820.21501,215.725 C838.76501,215.725 849.61501,206.975 849.61501,191.05 C849.61501,175.475 838.76501,166.55 820.21501,166.55 L775.24001,166.55 L775.24001,215.725 Z M938.550008,281 L938.550008,158.5 L1020.80001,158.5 L1020.80001,166.55 L947.300008,166.55 L947.300008,211 L1008.02501,211 L1008.02501,219.225 L947.300008,219.225 L947.300008,272.95 L1023.60001,272.95 L1023.60001,281 L938.550008,281 Z M1217.22001,281 L1217.22001,224.3 L1169.62001,158.5 L1180.12001,158.5 L1221.77001,216.075 L1263.77001,158.5 L1273.74501,158.5 L1225.97001,224.125 L1225.97001,281 L1217.22001,281 Z M1388.405,274.875 C1417.455,274.875 1440.38,251.425 1440.38,219.75 C1440.38,188.075 1417.455,164.8 1388.405,164.8 C1359.355,164.8 1336.255,188.075 1336.255,219.75 C1336.255,251.425 1359.355,274.875 1388.405,274.875 Z M1388.405,283.1 C1353.58,283.1 1327.33,256.15 1327.33,219.75 C1327.33,183.525 1353.58,156.4 1388.405,156.4 C1422.88,156.4 1449.305,183.525 1449.305,219.75 C1449.305,256.15 1422.88,283.1 1388.405,283.1 Z M1580.24,283.1 C1545.765,283.1 1518.64,256.675 1518.64,219.75 C1518.64,182.825 1545.59,156.4 1580.24,156.4 C1595.465,156.4 1609.465,160.775 1620.14,169 L1620.14,178.275 C1608.765,169.35 1594.765,164.8 1580.94,164.8 C1550.84,164.8 1527.565,187.55 1527.565,219.925 C1527.565,251.95 1551.015,274.875 1580.24,274.875 C1595.465,274.875 1609.29,270.15 1618.39,260.525 L1618.39,210.825 L1627.14,210.825 L1627.14,263.85 C1616.815,275.05 1600.89,283.1 1580.24,283.1 Z M1691.575,281 L1747.05,157.8 L1755.1,157.8 L1810.4,281 L1801.3,281 L1785.2,245.3 L1716.775,245.3 L1700.675,281 L1691.575,281 Z M1719.925,237.6 L1782.05,237.6 L1751.075,169.175 L1719.925,237.6 Z" id="PURE-YOGA" fill="#000000"></path>
          <path d="M565.92,350 L565.92,189 L633.08,189 C665.28,189 682.99,206.71 682.99,232.47 C682.99,258.23 665.28,276.17 633.08,276.17 L577.42,276.17 L577.42,350 L565.92,350 Z M577.42,265.59 L631.93,265.59 C657.23,265.59 671.49,253.63 671.49,232.47 C671.49,211.54 657.23,199.58 631.93,199.58 L577.42,199.58 L577.42,265.59 Z M827.1266,352.76 C789.4066,352.76 762.4966,327.92 762.4966,281.23 L762.4966,189 L773.9966,189 L773.9966,281.23 C773.9966,319.87 794.4666,341.95 827.1266,341.95 C859.7866,341.95 880.0266,320.1 880.0266,281.23 L880.0266,189 L891.5266,189 L891.5266,281.23 C891.5266,327.92 864.3866,352.76 827.1266,352.76 Z M982.9932,350 L982.9932,189 L1054.5232,189 C1086.0332,189 1103.7432,206.25 1103.7432,231.55 C1103.7432,254.32 1089.7132,270.88 1063.9532,273.87 L1116.6232,350 L1103.2832,350 L1050.8432,274.79 L994.4932,274.79 L994.4932,350 L982.9932,350 Z M994.4932,264.21 L1053.6032,264.21 C1077.9832,264.21 1092.2432,252.71 1092.2432,231.78 C1092.2432,211.31 1077.9832,199.58 1053.6032,199.58 L994.4932,199.58 L994.4932,264.21 Z M1198.4298,350 L1198.4298,189 L1306.5298,189 L1306.5298,199.58 L1209.9298,199.58 L1209.9298,258 L1289.7398,258 L1289.7398,268.81 L1209.9298,268.81 L1209.9298,339.42 L1310.2098,339.42 L1310.2098,350 L1198.4298,350 Z M1504.1664,350 L1504.1664,189 L1611.1164,189 L1611.1164,199.58 L1515.6664,199.58 L1515.6664,260.07 L1594.5564,260.07 L1594.5564,270.88 L1515.6664,270.88 L1515.6664,350 L1504.1664,350 Z M1694.073,350 L1694.073,189 L1705.573,189 L1705.573,350 L1694.073,350 Z M1842.8096,350 L1842.8096,199.58 L1785.3096,199.58 L1785.3096,189 L1911.8096,189 L1911.8096,199.58 L1854.3096,199.58 L1854.3096,350 L1842.8096,350 Z" id="PURE-FIT"></path>
    </g>
</svg>