<svg version="1.1" id="Layer_1" xmlns="http://www.w3.org/2000/svg" xmlns:xlink="http://www.w3.org/1999/xlink" x="0px" y="0px"
	 viewBox="0 0 504 504" style="enable-background:new 0 0 504 504;" xml:space="preserve">
<style type="text/css">
	.st0{fill:#FFFFFF;}
</style>
<g>
	<g>
		<path class="st0" d="M316.3,274.5c-0.6-2.1-9.5-14.8-17.6-23.4c-3-3.2-8.6-6.1-11.7-9.7c-5-5.9-16.6-25.9-21.5-32.1
			c0,0-0.7-11-2.7-15.9c-1.6-4-6.1-6.6-6.1-6.6c-1.1-12,0-14.6-1.3-26.5c-0.8-7.6-4.8-13.5-6-24.7c0,0,0.6-0.7,1-2
			c0.5-1.4,0-2.8-0.3-4.6c-0.3-2.3-0.1-4.9-0.4-6.9c-0.1-1-0.6-4-1.2-4c-0.3,0-0.1,1.4-0.4,4.4c0,0.3-0.1-0.5-0.5-0.7
			c-0.1-0.1-0.1,3.2-0.3,5.5c-0.4,3.7-1.3,9.4-1.4,12.2c-0.1,3.6-0.1,10.1,0.2,13.7c0.4,3.7,2.2,10.8,2.4,14.5
			c0.2,3.7-1.7,15.9-1.7,15.9s-3.6,5.1-4,14.6c-0.4,10.9-0.1,0.9-0.5,15c0,0-4.9,6.8-9.8,13.4c-6.9,9.2-8.7,12.3-13.6,17.1
			c-2.8,2.7-7.9,4.9-14.4,10c-6.8,5.3-13.4,15.3-19.2,20.3c-0.4,0.4-1.4,1.2-1.6,1.8c-0.1,0.4-0.4,4,0,4.5c1.3,1.7,6.4,1.2,6.7,1.2
			c1.4-0.1,2-0.4,2.1-0.9c0.1-0.4-1.1-0.5-1.5-0.8c-1-0.8-0.7-4.9-0.7-4.9c7.7-6.7,16.3-12.1,30.1-20.6c9.9-6.1,23-17.6,23-17.6
			c0.2,9.4,0.1,7.4,0.5,17.7c0.3,6.6,2.8,23.4,2.9,27c0,1.6-1.4,4.3-2.1,5.8c-0.3,0.7-0.9,1.7-1.7,2.4c-1.5,1.4-2.1,1.9-1.8,2.2
			c0.4,0.3,3.1-1.4,3.9-2.2c0,0-0.3,0.7-0.7,1.7c-0.5,1.2-1,2.4-0.5,2.6c0.4,0.1,1.2-0.8,1.7-1.6c0.7-1,1.4-2.6,1.4-2.6
			c0.3,0,1.1,0.3,1.5,0.7c0,0,0.2,1.1,0.3,2.1c0.2,1.1,0.6,2,1.1,2c0.7,0,0.7-1.1,0.6-2c-0.1-0.8-0.1-1.9-0.1-1.9
			c1.7,0.1,2.1,1.7,2.9,2.5c0.7,0.7,1.3,0.7,1.5,0.6c0.5-0.3-0.2-1.2-0.6-2c-0.4-0.7-0.9-1.7-0.9-1.7s1.6,0.4,1.9-0.6
			c0.1-0.2-0.6-0.4-1.3-0.7c-0.6-0.3-1.2-0.6-1.2-0.6c-0.6-2.5-1-3.5-1.3-5.5c-0.2-1.1-0.7-2.9-0.7-3.8c-0.2-6.3,0.4-8.6,0.7-14
			c0.1-1.7,0.3-6.7,0.3-10c-0.3-11.7,0.3-17,0.3-17s1.6-5.8,2.4-7.6c0,0,13.5,6.9,31,21.4c18.9,15.7,24.9,22,24.9,22
			s0.3,4.2-0.6,5.5c0,0-1.1,0.6-1.1,0.9c0.1,0.8,1.3,1.2,2.5,1.4c2.4,0.3,5.6-0.1,6.1-0.7C317.8,280.1,316.8,276.4,316.3,274.5"/>
		<path class="st0" d="M252,290.7c-39.1,0-70.9-31.8-70.9-70.9c0-39.1,31.8-70.9,70.9-70.9c39.1,0,70.9,31.8,70.9,70.9
			C322.9,258.9,291.1,290.7,252,290.7 M252,158.4c-33.8,0-61.4,27.5-61.4,61.4c0,33.8,27.5,61.4,61.4,61.4
			c33.8,0,61.4-27.5,61.4-61.4C313.4,185.9,285.8,158.4,252,158.4"/>
		<path class="st0" d="M0,337.8h19.7c9.5,0,14.7,5.2,14.7,12.8c0,7.6-5.2,12.8-14.7,12.8H3.4v21.7H0V337.8z M19.4,360.3
			c7.4,0,11.6-3.5,11.6-9.7c0-6.2-4.2-9.7-11.6-9.7h-16v19.4H19.4z"/>
		<path class="st0" d="M57.7,364.9v-27.1h3.4v27.1c0,11.4,6,17.9,15.6,17.9c9.6,0,15.6-6.4,15.6-17.9v-27.1h3.4v27.1
			c0,13.7-8,21-18.9,21C65.7,385.9,57.7,378.6,57.7,364.9"/>
		<path class="st0" d="M123.9,337.8h21c9.3,0,14.5,5.1,14.5,12.5c0,6.7-4.1,11.6-11.7,12.4l15.5,22.4h-3.9L143.8,363h-16.6v22.1
			h-3.4V337.8z M144.6,359.9c7.2,0,11.4-3.4,11.4-9.5c0-6-4.2-9.5-11.4-9.5h-17.4v19H144.6z"/>
		<polygon class="st0" points="187.2,337.8 218.9,337.8 218.9,340.9 190.5,340.9 190.5,358 214,358 214,361.2 190.5,361.2 
			190.5,382 220,382 220,385.1 187.2,385.1 		"/>
		<polygon class="st0" points="290,363.2 271.6,337.8 275.6,337.8 291.7,360 308,337.8 311.8,337.8 293.4,363.1 293.4,385.1 
			290,385.1 		"/>
		<path class="st0" d="M327.8,361.4c0-14,10.1-24.5,23.6-24.5c13.3,0,23.5,10.5,23.5,24.5c0,14.1-10.2,24.5-23.5,24.5
			C337.9,385.9,327.8,375.5,327.8,361.4 M371.5,361.4c0-12.2-8.9-21.2-20.1-21.2c-11.2,0-20.2,9-20.2,21.2
			c0,12.2,8.9,21.3,20.2,21.3C362.6,382.7,371.5,373.7,371.5,361.4"/>
		<path class="st0" d="M394.5,361.4c0-14.3,10.4-24.5,23.8-24.5c5.9,0,11.3,1.7,15.4,4.9v3.6c-4.4-3.4-9.8-5.2-15.2-5.2
			c-11.6,0-20.6,8.8-20.6,21.3c0,12.4,9.1,21.2,20.4,21.2c5.9,0,11.2-1.8,14.7-5.5V358h3.4v20.5c-4,4.3-10.1,7.4-18.1,7.4
			C404.9,385.9,394.5,375.7,394.5,361.4"/>
		<path class="st0" d="M479.5,337.5h3.1l21.4,47.6h-3.5l-6.2-13.8h-26.4l-6.2,13.8h-3.5L479.5,337.5z M493,368.3l-12-26.4l-12,26.4
			H493z"/>
	</g>
</g>
</svg>

